<?xml version="1.0" encoding="utf-8"?>
<!-- Generator: Adobe Illustrator 18.1.1, SVG Export Plug-In . SVG Version: 6.00 Build 0)  -->
<svg version="1.1" id="Capa_1" xmlns="http://www.w3.org/2000/svg" xmlns:xlink="http://www.w3.org/1999/xlink" x="0px" y="0px"
	 viewBox="0 0 95 24" enable-background="new 0 0 95 24" xml:space="preserve">
<g>
	<path fill="#FFFFFF" d="M70.6,6.1c-4.7,0-8.4,3.8-8.4,8.4c0,4.7,3.8,8.4,8.4,8.4c4.7,0,8.4-3.8,8.4-8.4C79.1,9.9,75.3,6.1,70.6,6.1
		z M70.6,19.7c-2.9,0-5.2-2.3-5.2-5.2s2.3-5.2,5.2-5.2s5.2,2.3,5.2,5.2S73.5,19.7,70.6,19.7z"/>
	<path fill="#FFFFFF" d="M18.3,15.7h3.3c0.1-0.4,0.1-0.8,0.1-1.1c0-4.7-3.8-8.4-8.4-8.4s-8.4,3.8-8.4,8.4c0,4.7,3.8,8.4,8.4,8.4
		c2.6,0,4.9-1.2,6.5-3l-2.6-2c-1,1.1-2.3,1.8-3.9,1.8c-2.5,0-4.5-1.7-5.1-4l0,0h0H18.3z M13.2,9.3c2.2,0,4.1,1.4,4.8,3.3H8.3
		C9.1,10.7,11,9.3,13.2,9.3z"/>
	<path fill="#FFFFFF" d="M56,1v6.7c-1.4-1-3.1-1.6-5-1.6c-4.7,0-8.4,3.8-8.4,8.4c0,4.7,3.8,8.4,8.4,8.4c1.9,0,3.6-0.6,5-1.6v1.2h3.4
		V1H56z M51,19.7c-2.9,0-5.2-2.3-5.2-5.2s2.3-5.2,5.2-5.2s5.2,2.3,5.2,5.2S53.9,19.7,51,19.7z"/>
	<path fill="#FFFFFF" d="M85,7.9V6.5h-3.2v16.1H85l0-8.9c0-0.9,0.3-1.8,1-2.5c1.1-1.1,2.6-1.9,4.2-1.9V6.1C88.3,6.1,86.5,6.8,85,7.9
		z"/>
	<path fill="#FFFFFF" d="M39.8,14.3c-0.1-4.6-3.1-8.2-7.7-8.2c-2,0-3,0.7-4.5,1.8V6.5h-3.2v2.8v13.3h3.2v-6.1v-2.2v-0.1
		c0-1.5,0.6-2.9,1.7-3.8c0.7-0.7,1.6-1,2.8-1c2.8,0,4.3,2.2,4.5,4.9h0v8.3h3.2L39.8,14.3L39.8,14.3z"/>
	<rect x="8.5" y="2.3" fill="#D73642" width="9.1" height="2"/>
</g>
</svg>
